# xmcd CD database file
#
# Track frame offsets:
#	150
#	21170
#	38799
#	54815
#	73512
#	86966
#	105022
#	121632
#	146992
#	164289
#	186353
#	212402
#
# Disc length: 3053 seconds
#
# Revision: 0
# Processed by: cddbd v1.5.1PL2 Copyright (c) Steve Scherf et al.
# Submitted via: CDex 1.40Release
#
DISCID=9a0beb0c
DTITLE=Rory Gallagher - Top Priority
DYEAR=1982
DGENRE=Blues
TTITLE0=Follow Me
TTITLE1=Philby
TTITLE2=Wayward Child
TTITLE3=Keychain
TTITLE4=At The Depot
TTITLE5=Bad Penny
TTITLE6=Just Hit Town
TTITLE7=Off The Handle
TTITLE8=Public Enemy No1
TTITLE9=Hell Cat
TTITLE10=The Watcher
TTITLE11=Nothing But The Devil (Live Acoustic Version)
EXTD=YEAR: 1982 ID3G: 0
EXTT0=
EXTT1=
EXTT2=
EXTT3=
EXTT4=
EXTT5=
EXTT6=
EXTT7=
EXTT8=
EXTT9=
EXTT10=
EXTT11=
PLAYORDER=
